<svg xmlns="http://www.w3.org/2000/svg" viewBox="0 0 800 450" width="800" height="450" role="img">
  <defs>
    <linearGradient id="bg" x1="0" y1="0" x2="1" y2="1">
      <stop offset="0" stop-color="#08121a"/>
      <stop offset="0.55" stop-color="#0a1a24"/>
      <stop offset="1" stop-color="#061017"/>
    </linearGradient>
    <radialGradient id="glow" cx="0.78" cy="0.18" r="0.75">
      <stop offset="0" stop-color="#22d3ee" stop-opacity="0.30"/>
      <stop offset="1" stop-color="#22d3ee" stop-opacity="0"/>
    </radialGradient>
    <radialGradient id="glow2" cx="0.15" cy="0.95" r="0.7">
      <stop offset="0" stop-color="#00ffa3" stop-opacity="0.20"/>
      <stop offset="1" stop-color="#00ffa3" stop-opacity="0"/>
    </radialGradient>
    <pattern id="grid" width="40" height="40" patternUnits="userSpaceOnUse">
      <path d="M40 0H0V40" fill="none" stroke="#22d3ee" stroke-opacity="0.13" stroke-width="1"/>
    </pattern>
    <pattern id="scan" width="4" height="4" patternUnits="userSpaceOnUse">
      <rect width="4" height="1" fill="#000" fill-opacity="0.16"/>
    </pattern>
  </defs>
  <rect width="800" height="450" fill="url(#bg)"/>
  <rect width="800" height="450" fill="url(#grid)"/>
  <rect width="800" height="450" fill="url(#glow)"/>
  <rect width="800" height="450" fill="url(#glow2)"/>
  <g>
    <rect x="70" y="96" width="660" height="250" rx="10" fill="#040d13" fill-opacity="0.92" stroke="#22d3ee" stroke-opacity="0.45"/>
    <rect x="70" y="96" width="660" height="32" rx="10" fill="#22d3ee" fill-opacity="0.12"/>
    <circle cx="94" cy="112" r="5" fill="#ff4d6d"/><circle cx="114" cy="112" r="5" fill="#ffb020"/><circle cx="134" cy="112" r="5" fill="#00ffa3"/>
    <text x="700" y="118" text-anchor="end" font-family="Consolas,monospace" font-size="13" fill="#22d3ee" fill-opacity="0.8">hashini-desilva7.github.io</text>
    <g font-family="Consolas,Menlo,monospace" font-size="16">
      <text x="94" y="164" fill="#00ffa3">$</text>
      <text x="110" y="164" fill="#d7e6ef">whoami</text>
      <text x="94" y="196" fill="#22d3ee">digital forensics · penetration testing</text>
      <text x="94" y="222" fill="#22d3ee">linux · python · c# · network analysis</text>
      <text x="94" y="258" fill="#00ffa3">$</text>
      <text x="110" y="258" fill="#00ffa3">status --available</text>
      <text x="94" y="292" fill="#ffb020">open to junior / graduate forensic roles</text>
      <text x="94" y="322" font-size="13" fill="#22d3ee" fill-opacity="0.7">$ <tspan fill="#00ffa3">█</tspan></text>
    </g>
  </g>
  <text x="34" y="410" font-family="Consolas,Menlo,monospace" font-size="17" letter-spacing="3" fill="#22d3ee" fill-opacity="0.9">PORTFOLIO // GITHUB PAGES</text>
  <rect width="800" height="450" fill="url(#scan)"/>
  <rect x="0.5" y="0.5" width="799" height="449" fill="none" stroke="#22d3ee" stroke-opacity="0.28"/>
  <g stroke="#00ffa3" stroke-opacity="0.85" stroke-width="2" fill="none">
    <path d="M18 44V18H44"/><path d="M782 406V432H756"/>
  </g>
</svg>
